<svg width="138" height="33" viewBox="0 0 138 33" fill="none" xmlns="http://www.w3.org/2000/svg">
<path d="M100.744 4.69732V28.2219C100.744 30.4985 99.2689 31.7217 97.3718 31.7217C95.8116 31.7217 94.546 30.8779 93.7049 29.6548L82.4069 14.0557V28.137C82.4069 30.0766 80.8043 31.7642 78.8222 31.7642C76.8402 31.7642 75.1553 30.0766 75.1553 28.137V4.52751C75.1553 2.29339 76.6305 1.07019 78.5701 1.07019C80.0879 1.07019 81.3111 1.8715 82.1973 3.13715L93.4952 18.6938V4.69732C93.4952 2.75772 95.0979 1.07019 97.0799 1.07019C99.062 1.07019 100.747 2.75772 100.747 4.69732H100.744Z" fill="white"/>
<path d="M110.976 4.69732V28.1397C110.976 30.0793 109.288 31.7668 107.349 31.7668C105.409 31.7668 103.722 30.0793 103.722 28.1397V4.69732C103.722 2.75772 105.367 1.07019 107.349 1.07019C109.331 1.07019 110.976 2.75772 110.976 4.69732Z" fill="white"/>
<path d="M138 4.3604C138 6.08773 136.567 7.48074 134.88 7.48074H129.525V28.0548C129.525 30.0793 127.88 31.7642 126.025 31.7642C124.171 31.7642 122.441 30.0767 122.441 28.0548V7.43829H117.129C115.441 7.43829 113.966 6.04793 113.966 4.31795C113.966 2.58796 115.441 1.15515 117.129 1.15515H134.88C136.567 1.19761 138 2.58796 138 4.3604Z" fill="white"/>
<path d="M40.2589 25.5765L31.7894 3.98357C30.8634 1.61943 28.2021 0.430727 25.8565 1.32756C24.705 1.76802 23.7975 2.63832 23.2934 3.7766C22.7999 4.89632 22.7707 6.12747 23.2085 7.24719L31.678 28.8402C32.3705 30.6073 34.1058 31.796 35.995 31.796C36.5496 31.796 37.0935 31.6952 37.6109 31.4962C38.7624 31.0557 39.6725 30.1854 40.174 29.0471C40.6676 27.9274 40.6967 26.6963 40.2589 25.5765Z" fill="white"/>
<path d="M18.1587 4.15343C18.0685 3.91994 17.9571 3.6944 17.8323 3.48214L17.7925 3.41049C17.3149 2.50305 16.572 1.80256 15.6407 1.38333L15.6301 1.37803C14.5103 0.879197 13.2606 0.85001 12.1064 1.29577C10.9734 1.73623 10.0872 2.58 9.60961 3.67318L0.386552 24.8018C-0.621721 27.1129 0.410432 29.822 2.69232 30.8382C3.80938 31.337 5.06176 31.3662 6.21331 30.9205C7.3463 30.48 8.23517 29.6362 8.71277 28.5404L13.5631 17.4255L18.0473 28.8561C18.761 30.6737 20.5043 31.7934 22.3377 31.7934C22.8737 31.7934 23.4177 31.6979 23.9457 31.4962C25.0893 31.0584 25.9941 30.1934 26.4929 29.0631C26.9838 27.9514 27.0129 26.7255 26.5778 25.6137L18.1587 4.15343Z" fill="white"/>
<path d="M50.7525 20.4662L43.7078 11.1185C43.1904 10.3676 42.015 10.5798 41.8027 11.4501C40.561 14.9075 40.4973 18.8344 41.938 22.4058C42.1503 22.8994 42.5749 23.2045 43.1374 23.1567L50.1661 22.2758C50.8958 22.1564 51.315 21.0977 50.7525 20.4662Z" fill="white"/>
<path d="M57.7626 23.0904L46.515 26.3275C45.6288 26.5424 45.4059 27.7179 46.1436 28.2247C48.9296 30.6206 52.5753 32.0826 56.4253 32.0163C56.9613 31.9951 57.3991 31.7085 57.5556 31.1646L59.2458 24.2844C59.3944 23.5627 58.5586 22.7879 57.7626 23.0904Z" fill="white"/>
<path d="M62.5548 16.8709L62.5813 28.5748C62.5442 29.4876 63.6135 30.0209 64.3034 29.4531C67.3706 27.4313 69.7799 24.3295 70.7722 20.6068C70.8996 20.0841 70.743 19.5853 70.2628 19.2855L64.1123 15.7724C63.4569 15.4301 62.4858 16.0245 62.5575 16.8709H62.5548Z" fill="white"/>
<path d="M58.4262 10.6488L69.5119 14.4059C70.3637 14.7349 71.2154 13.8965 70.8996 13.058C69.9763 9.50253 67.8191 6.22033 64.6191 4.07907C64.1654 3.78986 63.6427 3.77659 63.2049 4.13479L57.8929 8.82062C57.3569 9.33006 57.6063 10.4418 58.4262 10.6488Z" fill="white"/>
<path d="M50.9891 12.7079L57.9011 3.26193C58.4715 2.54817 57.9276 1.48418 57.0334 1.53459C53.3638 1.34621 49.5855 2.42081 46.5845 4.83271C46.1733 5.17765 46.0034 5.67382 46.213 6.19919L49.0893 12.6734C49.413 13.3367 50.5486 13.4349 50.9891 12.7079Z" fill="white"/>
</svg>
