<svg width="223" height="15" viewBox="0 0 223 15" fill="none" xmlns="http://www.w3.org/2000/svg">
<path d="M220.138 6.21103C217.252 6.62003 215.931 7.64504 214.073 9.63004C211.91 11.941 209.219 14.818 204.03 14.818C198.841 14.818 196.15 11.941 193.988 9.63004C192.13 7.64504 190.788 6.21103 187.923 6.21103C185.058 6.21103 183.716 7.64504 181.859 9.63004C179.696 11.941 177.005 14.818 171.816 14.818C166.627 14.818 163.936 11.941 161.774 9.63004C159.917 7.64504 158.574 6.21103 155.71 6.21103C152.846 6.21103 151.503 7.64504 149.646 9.63004C147.483 11.941 144.792 14.818 139.603 14.818C134.414 14.818 131.723 11.941 129.56 9.63004C127.703 7.64504 126.36 6.21103 123.496 6.21103C120.632 6.21103 119.289 7.64504 117.431 9.63004C115.268 11.941 112.577 14.818 107.389 14.818C102.201 14.818 99.5086 11.941 97.3456 9.63004C95.4886 7.64504 94.1457 6.21103 91.2807 6.21103C88.4157 6.21103 87.0735 7.64504 85.2155 9.63004C83.0535 11.941 80.3615 14.818 75.1735 14.818C69.9855 14.818 67.2935 11.941 65.1305 9.63004C63.2735 7.64504 61.9306 6.21103 59.0666 6.21103C56.2026 6.21103 54.8596 7.64504 53.0026 9.63004C50.8396 11.941 48.1486 14.818 42.9596 14.818C37.7706 14.818 35.0787 11.941 32.9167 9.63004C31.0597 7.64504 29.7167 6.21103 26.8517 6.21103C23.9867 6.21103 22.6445 7.64504 20.7875 9.63004C18.6245 11.941 15.9335 14.818 10.7455 14.818C5.55754 14.818 2.86457 11.941 0.702569 9.63004C-1.15443 7.64504 0.840596 2.38701 4.6806 5.25101C6.5386 7.23601 7.88054 8.67002 10.7455 8.67002C13.6105 8.67002 14.9527 7.23601 16.8097 5.25101C18.9717 2.94001 21.6637 0.0630232 26.8517 0.0630232C32.0397 0.0630232 34.7327 2.93901 36.8947 5.25101C38.7517 7.23601 40.0947 8.67002 42.9587 8.67002C45.8227 8.67002 47.1656 7.23601 49.0226 5.25101C51.1856 2.94001 53.8766 0.0630232 59.0646 0.0630232C64.2526 0.0630232 66.9456 2.93901 69.1076 5.25101C70.9646 7.23601 72.3076 8.67002 75.1716 8.67002C78.0356 8.67002 79.3785 7.23601 81.2355 5.25101C83.3985 2.94001 86.0897 0.0630232 91.2787 0.0630232C96.4677 0.0630232 99.1587 2.93901 101.322 5.25101C103.179 7.23601 104.522 8.67002 107.386 8.67002C110.25 8.67002 111.593 7.23601 113.45 5.25101C115.613 2.94001 118.304 0.0630232 123.493 0.0630232C128.682 0.0630232 131.373 2.93901 133.536 5.25101C135.393 7.23601 136.736 8.67002 139.6 8.67002C142.464 8.67002 143.807 7.23601 145.665 5.25101C147.827 2.94001 150.519 0.0630232 155.707 0.0630232C160.895 0.0630232 163.588 2.93901 165.75 5.25101C167.608 7.23601 168.95 8.67002 171.814 8.67002C174.678 8.67002 176.022 7.23601 177.879 5.25101C180.042 2.94001 182.733 0.0630232 187.922 0.0630232C193.111 0.0630232 195.802 2.93901 197.965 5.25101C199.822 7.23601 201.165 8.67002 204.029 8.67002C206.893 8.67002 208.237 7.23601 210.093 5.25101C212.256 2.94001 216.714 -0.508977 220.136 0.0630232C223.558 0.635023 223.024 5.80203 220.138 6.21103Z" fill="#02BAFF"/>
</svg>
